<svg xmlns="http://www.w3.org/2000/svg" xmlns:xlink="http://www.w3.org/1999/xlink" width="2000" height="414.95" viewBox="0 0 2000 414.95"><defs><style>.cls-1{isolation:isolate;}.cls-2{mix-blend-mode:multiply;}.cls-3{fill:url(#linear-gradient);}.cls-4{fill:url(#linear-gradient-2);}.cls-5{fill:url(#linear-gradient-3);}.cls-6{fill:url(#linear-gradient-4);}.cls-7{fill:url(#linear-gradient-5);}.cls-8{fill:#000000;}</style><linearGradient id="linear-gradient" x1="-23.09" y1="329.96" x2="377.17" y2="329.96" gradientUnits="userSpaceOnUse"><stop offset="0" stop-color="#f24c64"/><stop offset="1" stop-color="#fbb03a"/></linearGradient><linearGradient id="linear-gradient-2" x1="-23.09" y1="165.71" x2="377.17" y2="165.71" xlink:href="#linear-gradient"/><linearGradient id="linear-gradient-3" x1="-23.09" y1="117.25" x2="377.17" y2="117.25" xlink:href="#linear-gradient"/><linearGradient id="linear-gradient-4" x1="-23.09" y1="316.98" x2="377.17" y2="316.98" xlink:href="#linear-gradient"/><linearGradient id="linear-gradient-5" x1="-23.09" y1="112.12" x2="377.17" y2="112.12" xlink:href="#linear-gradient"/></defs><g class="cls-1"><g id="Layer_2" data-name="Layer 2"><g class="cls-2"><path class="cls-3" d="M19.59,414.28a19,19,0,0,1-14.4-32.1L128.44,251.6a19,19,0,1,1,27.7,26.14L32.89,408.32A19,19,0,0,1,19.59,414.28Z"/></g><g class="cls-2"><path class="cls-4" d="M374.37,318.67A19,19,0,0,1,362.61,315l-111-81-.41-.31a31.61,31.61,0,0,0-25-6.09L188,234.57a19,19,0,0,1-22.3-21L170.46,175a31.67,31.67,0,0,0-7.52-24.56l-.33-.4L75.36,43.89A19,19,0,0,1,104.78,19.7l87.1,106a69.83,69.83,0,0,1,16.38,54l-1.57,12.85,12.74-2.31a69.84,69.84,0,0,1,54.81,13.24l110.82,80.84a19,19,0,0,1-10.69,34.42Z"/></g><g class="cls-2"><path class="cls-5" d="M109.29,175.29A19,19,0,0,1,94,168.35l-62.49-78A19,19,0,0,1,61,66.15l62.48,78a19,19,0,0,1-14.14,31.12Z"/></g><g class="cls-2"><path class="cls-6" d="M330.54,365.11a18.94,18.94,0,0,1-11.92-3.77l-81.46-58.18a19,19,0,0,1,22.76-30.54l81.46,58.19a19,19,0,0,1-10.84,34.3Z"/></g><g class="cls-2"><path class="cls-7" d="M280.23,96.14a16,16,0,1,1-11.17,5,15.93,15.93,0,0,1,11.17-5m-1.1-38.07A54.07,54.07,0,1,0,317.8,72.8a53.69,53.69,0,0,0-38.67-14.73Z"/></g><path class="cls-8" d="M679.88,99l.17,226.92H637.13L637,292.12a68.72,68.72,0,0,1-21.62,23.82q-14.21,10-33.12,10a72.38,72.38,0,0,1-38-10.47Q526.8,305,516.32,285T505.85,236.7q0-28.39,10.64-48.66t28.73-31.26a75.6,75.6,0,0,1,40-11A72.17,72.17,0,0,1,637,169.45V99a21.46,21.46,0,0,1,21.46-21.46h0A21.46,21.46,0,0,1,679.88,99ZM594.05,188q-13.53,0-23.15,6.92a47.53,47.53,0,0,0-15,17.91,53.18,53.18,0,0,0-5.4,23.83q0,19.26,11.65,32.78T593,283a40.44,40.44,0,0,0,21.46-6.08,46.34,46.34,0,0,0,16.22-17.06q6.25-11,6.25-26.53V209a74.12,74.12,0,0,0-19.76-15.38A49.13,49.13,0,0,0,594.05,188Z"/><path class="cls-8" d="M826.22,175.83c0,10-8.75,17.3-18.72,16.43-1.3-.11-2.6-.17-3.92-.17q-14.87,0-24.66,9.63a94.18,94.18,0,0,0-17.24,23.83V325.91H718.76V171.64a21.46,21.46,0,0,1,21.46-21.46h0a21.46,21.46,0,0,1,21.46,21.46v10.65A94.73,94.73,0,0,1,782.46,157a41,41,0,0,1,27.21-10.14h.18a16.39,16.39,0,0,1,16.37,16.4Z"/><path class="cls-8" d="M913.09,145.79a72.17,72.17,0,0,1,51.7,23.66h0a19.27,19.27,0,0,1,19.26-19.27h4.4a19.26,19.26,0,0,1,19.26,19.27V324.16H964.79v-32a68.82,68.82,0,0,1-21.62,23.82q-14.2,10-33.13,10a72.37,72.37,0,0,1-38-10.47Q854.62,305,844.15,285T833.67,236.7q0-28.39,10.65-48.66T873,156.78A75.66,75.66,0,0,1,913.09,145.79Zm8.78,41.91q-13.51,0-23.14,6.92a47.15,47.15,0,0,0-15,18.08,54.25,54.25,0,0,0-5.41,24q0,19.26,11.66,32.78T920.86,283a40.47,40.47,0,0,0,21.46-6.08,46.42,46.42,0,0,0,16.22-17.06q6.26-11,6.25-26.53V209A77.07,77.07,0,0,0,945,193.44,47.94,47.94,0,0,0,921.87,187.7Z"/><path class="cls-8" d="M1323,145.79a89.07,89.07,0,0,1,45.62,12,94.58,94.58,0,0,1,33.28,32.44q12.68,20.46,12.68,45.79t-12.68,45.62a95.07,95.07,0,0,1-33.28,32.28,92.48,92.48,0,0,1-91.08,0,93.18,93.18,0,0,1-33.28-32.28q-12.51-20.26-12.51-45.62t12.51-45.79a92.71,92.71,0,0,1,33.28-32.44A89.33,89.33,0,0,1,1323,145.79Zm0,41.57a46.44,46.44,0,0,0-22.65,5.74,43,43,0,0,0-16.72,16.56q-6.25,10.83-6.26,26.36t6.26,26.36a41.61,41.61,0,0,0,16.72,16.39,48.74,48.74,0,0,0,45.29,0,42.78,42.78,0,0,0,16.89-16.39q6.42-10.8,6.42-26.36t-6.42-26.36a44.28,44.28,0,0,0-16.89-16.56A46.46,46.46,0,0,0,1323,187.36Z"/><path class="cls-8" d="M1480.05,171.64v2.88q7.77-10.47,21.12-19.6a52.84,52.84,0,0,1,30.58-9.13q26,0,43.6,17.57t17.57,52.72V325H1550l-.33-103.19q0-17.24-8.29-25.68t-22.81-8.45a35.2,35.2,0,0,0-21.45,7.43,76.71,76.71,0,0,0-17.07,17.57V325h-42.92V171.64a21.46,21.46,0,0,1,21.46-21.46h0A21.46,21.46,0,0,1,1480.05,171.64Z"/><path class="cls-8" d="M1730.88,150.18V186h-44.27V325H1643.7V186h-26V150.18h26V135q0-19.6,8.28-33.63a56.94,56.94,0,0,1,21.79-21.46,60.76,60.76,0,0,1,29.74-7.43,68.19,68.19,0,0,1,18.93,2.36l1.68.52a18.19,18.19,0,0,1,12.51,17.35h0a18.21,18.21,0,0,1-19.77,18.13,54.79,54.79,0,0,0-5.91-.17,26.54,26.54,0,0,0-17.24,6.59q-7.1,6.26-7.1,20.44v12.5Z"/><path class="cls-8" d="M1800.32,99V325H1757.4V99a21.46,21.46,0,0,1,21.46-21.46h0A21.46,21.46,0,0,1,1800.32,99Z"/><path class="cls-8" d="M1874.3,163.53,1917,259l41.68-95.86a21.54,21.54,0,0,1,19.75-13h0a21.54,21.54,0,0,1,19.26,31.19L1885.16,406.08H1836.5L1892,308.34l-58.73-126.07a22.56,22.56,0,0,1,20.45-32.09h0A22.55,22.55,0,0,1,1874.3,163.53Z"/><path class="cls-8" d="M1208,222.47a77.55,77.55,0,0,0-18.31-39.22c-1-1.07-1.93-2.1-2.92-3.12l6.21-8.53a20.9,20.9,0,0,0-4.61-29.18h0a20.88,20.88,0,0,0-29.18,4.6l-7.91,10.87a84.32,84.32,0,0,0-78.23,15,84.59,84.59,0,0,0-25,34.18,82.06,82.06,0,0,0,10.36,77.8c-15.07,20.76-27,47.81-14,75.4,9.8,20.87,30.7,32.78,57.45,32.78h.55c8.22.27,16.41.38,24.15.38,8.35,0,16.16-.12,22.85-.29a21.44,21.44,0,0,0,20.92-22.59h0a21.47,21.47,0,0,0-22-20.31c-12.4.3-28.81.46-44.94-.09-.33,0-.66,0-1,0-15.11.19-18.2-6.06-19.16-8.1-3.91-8.33,1.46-19.88,9-30.57.49.16,1,.35,1.48.49,1,.4,2,.82,3,1.2a84.2,84.2,0,0,0,81.82-13.78,86.68,86.68,0,0,0,25-34Q1211.85,245.25,1208,222.47Zm-82.33-28a39.7,39.7,0,0,1,13.1,2.22,38.08,38.08,0,0,1,16.63,11.59c4.62,5.47,7.72,12.72,9.21,21.54s.93,16.69-1.65,23.37a36.77,36.77,0,0,1-11.92,16.22,42,42,0,0,1-38.42,6.48,35.82,35.82,0,0,1-16.4-11.44c-4.54-5.48-7.59-12.74-9.08-21.59s-1-16.69,1.51-23.36a36.86,36.86,0,0,1,11.75-16.35,40,40,0,0,1,18.37-8.1A41.37,41.37,0,0,1,1125.69,194.43Z"/></g></g></svg>
